<svg xmlns="http://www.w3.org/2000/svg" viewBox="0 0 18 14" shape-rendering="crispEdges" role="img" aria-label="Open Fly"><title>Open Fly</title><g fill="currentColor"><rect x="5" y="0" width="2" height="1"/><rect x="11" y="0" width="2" height="1"/><rect x="4" y="1" width="4" height="1"/><rect x="10" y="1" width="4" height="1"/><rect x="4" y="2" width="3" height="1"/><rect x="8" y="2" width="2" height="1"/><rect x="11" y="2" width="3" height="1"/><rect x="2" y="3" width="1" height="1"/><rect x="7" y="3" width="4" height="1"/><rect x="15" y="3" width="1" height="1"/><rect x="3" y="4" width="1" height="1"/><rect x="6" y="4" width="6" height="1"/><rect x="14" y="4" width="1" height="1"/><rect x="4" y="5" width="10" height="1"/><rect x="3" y="6" width="3" height="1"/><rect x="7" y="6" width="4" height="1"/><rect x="12" y="6" width="3" height="1"/><rect x="2" y="7" width="4" height="1"/><rect x="7" y="7" width="4" height="1"/><rect x="12" y="7" width="4" height="1"/><rect x="1" y="8" width="2" height="1"/><rect x="5" y="8" width="1" height="1"/><rect x="7" y="8" width="1" height="1"/><rect x="10" y="8" width="1" height="1"/><rect x="12" y="8" width="1" height="1"/><rect x="15" y="8" width="2" height="1"/><rect x="0" y="9" width="2" height="1"/><rect x="4" y="9" width="2" height="1"/><rect x="7" y="9" width="4" height="1"/><rect x="12" y="9" width="2" height="1"/><rect x="16" y="9" width="2" height="1"/><rect x="0" y="10" width="1" height="1"/><rect x="3" y="10" width="2" height="1"/><rect x="7" y="10" width="1" height="1"/><rect x="10" y="10" width="1" height="1"/><rect x="13" y="10" width="2" height="1"/><rect x="17" y="10" width="1" height="1"/><rect x="0" y="11" width="1" height="1"/><rect x="2" y="11" width="2" height="1"/><rect x="7" y="11" width="4" height="1"/><rect x="14" y="11" width="2" height="1"/><rect x="17" y="11" width="1" height="1"/><rect x="0" y="12" width="3" height="1"/><rect x="8" y="12" width="2" height="1"/><rect x="15" y="12" width="3" height="1"/><rect x="8" y="13" width="2" height="1"/></g></svg>
